<svg version="1.1" xmlns="http://www.w3.org/2000/svg" style="display: block;" viewBox="0 0 1892 1688" width="473" height="422" preserveAspectRatio="none">
<path transform="translate(0,0)" fill="rgb(254,254,254)" d="M 0 0 L 1892 0 L 1892 1546.53 L 1892 1548.11 L 1892 1688 L 0 1688 L 0 1534.96 L 0 1510.31 L 0 0 z"/>
<path transform="translate(0,0)" fill="rgb(0,0,0)" d="M 1860.44 1546.08 C 1870.47 1546.89 1881.82 1546.59 1892 1546.53 L 1892 1548.11 C 1887.21 1553.63 1871.4 1606.14 1866.43 1617.71 C 1851.19 1653.16 1847.45 1674.11 1806.69 1685.98 C 1806.14 1679.34 1802.92 1668.61 1801.57 1660.8 C 1815.5 1656.34 1821.04 1652.31 1828.41 1640.11 C 1825.01 1628.29 1818.17 1612.3 1813.46 1600.77 L 1791.36 1546.58 C 1800.44 1547.13 1814.74 1546.8 1823.81 1546.43 C 1829.01 1563.87 1841.06 1599.85 1843.69 1615.9 C 1847.57 1595.21 1855.26 1566.98 1860.44 1546.08 z"/>
<path transform="translate(0,0)" fill="rgb(0,0,0)" d="M 0 1510.31 L 101.737 1510.54 C 101.147 1518.11 101.291 1527.49 101.882 1535.12 C 89.8942 1534.99 77.9051 1534.94 65.9162 1534.99 C 65.1401 1569.35 65.2584 1607.57 65.7048 1642.02 L 35.9511 1642.1 L 35.8555 1535.07 L 0 1534.96 L 0 1510.31 z"/>
<path transform="translate(0,0)" fill="rgb(2,79,163)" d="M 7.84321 2.59162 C 28.8686 3.79541 58.5079 2.94449 79.9337 2.94629 L 213.471 2.94042 L 624.158 2.93954 L 1884.03 2.90591 C 1883.58 28.2536 1883.94 54.6717 1883.92 80.1054 C 1803.35 78.1603 1725.64 73.8799 1644.13 75.2588 C 1354.47 80.159 1050.62 113.478 782.236 228.509 C 653.119 283.85 518.276 369.291 430.681 479.771 C 415.108 499.413 391.022 533.696 381.865 556.883 C 433.865 557.766 488.054 556.991 540.252 557.037 C 571.959 499.786 689.669 387.873 746.047 351.767 C 1028.16 171.099 1381.31 109.259 1711.83 136.564 C 1769.24 141.307 1827.44 147.709 1883.97 159.494 L 1883.99 254.997 C 1859.69 254.841 1830.02 252.873 1805.13 252.085 C 1756.21 250.481 1707.28 249.808 1658.34 250.067 C 1555.14 250.552 1452.03 256.365 1349.43 267.484 C 1332.53 269.279 1315.58 270.52 1298.68 272.555 C 1273.77 275.557 1249.07 280.096 1224.29 283.786 C 1100.74 302.183 977.645 332.288 860.641 376.424 C 713.741 431.837 569.505 513.714 465.506 633.493 C 442.4 660.105 414.705 698.7 400.24 730.83 C 451.684 731.756 505.341 731.031 556.899 731.06 C 557.592 729.622 558.314 728.199 559.066 726.792 C 574.316 697.943 610.901 659.458 634.684 635.838 C 671.061 599.712 713.014 561.355 754.143 530.851 C 776.103 514.564 808.419 496.638 832.408 483.137 C 918.957 434.428 1007.59 399.544 1102.21 370.284 C 1122.97 363.793 1144.68 358.498 1165.9 353.228 C 1391.22 297.27 1630.9 290.869 1859.6 329.584 C 1867.44 330.911 1875.13 332.86 1883.01 333.704 L 1884.06 333.808 C 1883.61 365.615 1883.97 398.126 1883.99 429.985 C 1865.45 429.519 1845.38 427.666 1826.28 426.978 C 1780.28 425.612 1734.25 424.825 1688.22 424.618 C 1433.82 424.374 1168.54 451.364 926.422 532.335 C 740.586 594.485 506.849 722.241 417.837 905.913 C 468.642 904.523 522.405 906.402 573.649 905.763 C 594.594 858.156 720.496 737.083 768.514 704.943 C 1069.16 503.715 1454.74 447.999 1808.53 495.674 C 1834.37 499.157 1858.81 504.494 1883.87 508.638 L 1883.88 1409.61 C 1831.89 1408.66 1777.52 1409.46 1725.28 1409.46 L 1424.19 1409.45 L 519.012 1409.45 L 180.15 1409.45 L 71.7292 1409.51 C 51.4227 1409.53 28.1049 1410.1 7.96368 1409.18 L 7.84321 2.59162 z"/>
<path transform="translate(0,0)" fill="rgb(254,254,254)" d="M 1063.72 840.849 C 1100.12 840.401 1136.53 840.428 1172.93 840.929 L 1173 878.201 C 1182.08 879.107 1196.46 879.118 1205.78 878.722 C 1205.75 897.673 1203.96 1032.32 1206.38 1038.78 C 1206.43 1038.92 1206.48 1039.06 1206.53 1039.19 C 1214.3 1031.7 1228.78 1013.9 1236.22 1004.95 C 1247.92 990.892 1262.64 974.574 1273.49 960.185 C 1279.75 960.524 1287.73 960.581 1293.99 960.377 C 1329.72 959.21 1367.91 962.304 1403.4 960.04 C 1393.77 969.384 1377.53 987.733 1369.23 998.101 C 1375.78 999.91 1427.67 998.959 1436.17 997.923 C 1396.25 1043.14 1355.77 1087.86 1314.74 1132.07 C 1351.97 1185.83 1392.92 1237.48 1430.82 1290.8 C 1435.45 1297.32 1440.36 1303.83 1445.22 1310.17 C 1404.48 1309.1 1355.22 1309.2 1314.38 1310.01 C 1310.17 1302.49 1293.67 1277.91 1287.91 1272.02 C 1286.32 1272.05 1284.54 1272.19 1282.97 1271.94 C 1278.28 1271.18 1226.38 1192.38 1218.33 1181.56 C 1212.89 1185.26 1209.96 1189.18 1205.74 1194.19 C 1205.69 1230.69 1204.53 1273.86 1205.95 1309.94 C 1172 1309.43 1130.85 1308.8 1097.17 1310.1 C 1098.02 1299.53 1098.28 1282.62 1097.78 1271.92 L 1063.66 1271.93 L 1063.72 840.849 z"/>
<path transform="translate(0,0)" fill="rgb(0,0,0)" d="M 1369.23 998.101 C 1375.78 999.91 1427.67 998.959 1436.17 997.923 C 1396.25 1043.14 1355.77 1087.86 1314.74 1132.07 C 1351.97 1185.83 1392.92 1237.48 1430.82 1290.8 C 1435.45 1297.32 1440.36 1303.83 1445.22 1310.17 C 1404.48 1309.1 1355.22 1309.2 1314.38 1310.01 C 1310.17 1302.49 1293.67 1277.91 1287.91 1272.02 L 1411.6 1271.73 C 1395.76 1247.97 1371.6 1216.74 1354.15 1193.21 C 1331.14 1162.18 1304.86 1123.76 1280.98 1094.38 C 1290.05 1085.98 1300.17 1073.77 1308.73 1064.5 C 1328.99 1042.54 1348.34 1019.45 1369.23 998.101 z"/>
<path transform="translate(0,0)" fill="rgb(0,0,0)" d="M 1188.14 1137.46 C 1193.85 1147.62 1211.07 1171 1218.33 1181.56 C 1212.89 1185.26 1209.96 1189.18 1205.74 1194.19 C 1205.69 1230.69 1204.53 1273.86 1205.95 1309.94 C 1172 1309.43 1130.85 1308.8 1097.17 1310.1 C 1098.02 1299.53 1098.28 1282.62 1097.78 1271.92 L 1173.11 1271.8 C 1172.19 1234.51 1173.01 1193.5 1173 1155.93 C 1178.6 1149.52 1183.05 1144.36 1188.14 1137.46 z"/>
<path transform="translate(0,0)" fill="rgb(0,0,0)" d="M 1173 878.201 C 1182.08 879.107 1196.46 879.118 1205.78 878.722 C 1205.75 897.673 1203.96 1032.32 1206.38 1038.78 C 1206.43 1038.92 1206.48 1039.06 1206.53 1039.19 C 1201.86 1046.99 1179.63 1072.06 1172.02 1081.69 C 1174 1066.89 1173.04 1027.71 1173.04 1011.59 L 1173 878.201 z"/>
<path transform="translate(0,0)" fill="rgb(254,254,254)" d="M 1492.25 849.733 C 1562.14 829.713 1686.78 822.576 1744.34 880.489 C 1749.88 886.063 1756.23 897.732 1760.29 904.845 C 1765.77 905.43 1777.09 918.242 1780.71 922.571 C 1798.1 943.392 1801.73 968.759 1799.14 995.109 C 1796.65 1020.38 1781.45 1044.75 1761.83 1060.44 C 1756.96 1064.34 1751.86 1067.66 1746.87 1071.79 C 1755.85 1080.43 1760.36 1086.14 1766.87 1096.7 C 1767.38 1097.53 1772.12 1105.58 1772.33 1105.84 C 1777.56 1106.17 1786.37 1116.13 1789.84 1120.04 C 1827.86 1162.9 1813.33 1240.32 1771.35 1275.49 C 1704.55 1331.47 1604.21 1324.31 1523.98 1309.28 C 1516.47 1307.87 1507.86 1305.95 1500.56 1303.85 C 1501.15 1299.11 1501.96 1276.51 1502.81 1274.38 C 1490.52 1271.59 1478.28 1268.63 1466.07 1265.48 C 1468.51 1246.52 1469.89 1193.05 1469.99 1173.3 C 1508.13 1189.87 1542.3 1200.08 1584.48 1197.81 C 1631.95 1195.26 1665.15 1181.17 1661.72 1128.13 C 1659.38 1128.78 1635.98 1125.88 1631.69 1125.64 C 1607.2 1124.26 1581.44 1121.56 1557.01 1124.18 C 1557.35 1114.14 1558.15 1096.29 1556.22 1086.77 C 1563.3 1087 1569.36 1086.97 1576.44 1086.77 C 1562.11 1085.48 1538.26 1086.16 1523.1 1086.22 L 1523.08 1011.1 C 1546.91 1011.17 1571.03 1011.27 1594.79 1009.11 C 1627.18 1006.16 1649.15 995.854 1650.19 960.735 C 1649.64 960.528 1649.08 960.333 1648.52 960.149 C 1614.39 949.051 1554.41 960.881 1522.09 977.276 C 1523.43 968.831 1524.85 934.925 1523.59 926.68 C 1509.99 930.457 1501.58 933.725 1488.81 939.147 C 1489.69 909.313 1491.65 879.536 1492.25 849.733 z"/>
<path transform="translate(0,0)" fill="rgb(0,0,0)" d="M 1772.33 1105.84 C 1777.56 1106.17 1786.37 1116.13 1789.84 1120.04 C 1827.86 1162.9 1813.33 1240.32 1771.35 1275.49 C 1704.55 1331.47 1604.21 1324.31 1523.98 1309.28 C 1516.47 1307.87 1507.86 1305.95 1500.56 1303.85 C 1501.15 1299.11 1501.96 1276.51 1502.81 1274.38 C 1595.53 1290.13 1743.85 1291.83 1774.92 1176.76 C 1781.38 1152.85 1780.15 1129.27 1772.33 1105.84 z"/>
<path transform="translate(0,0)" fill="rgb(0,0,0)" d="M 1760.29 904.845 C 1765.77 905.43 1777.09 918.242 1780.71 922.571 C 1798.1 943.392 1801.73 968.759 1799.14 995.109 C 1796.65 1020.38 1781.45 1044.75 1761.83 1060.44 C 1756.96 1064.34 1751.86 1067.66 1746.87 1071.79 C 1719.8 1050.46 1710.94 1053.25 1679.84 1045.31 C 1685.76 1043.36 1691.69 1041.29 1697.58 1039.29 C 1754.65 1019.97 1781.38 960.684 1760.29 904.845 z"/>
<path transform="translate(0,0)" fill="rgb(0,0,0)" d="M 1523.59 926.68 C 1559.55 916.865 1647.94 905.687 1650.19 960.735 C 1649.64 960.528 1649.08 960.333 1648.52 960.149 C 1614.39 949.051 1554.41 960.881 1522.09 977.276 C 1523.43 968.831 1524.85 934.925 1523.59 926.68 z"/>
<path transform="translate(0,0)" fill="rgb(0,0,0)" d="M 1576.44 1086.77 C 1609.22 1087.35 1653.9 1088.06 1661.72 1128.13 C 1659.38 1128.78 1635.98 1125.88 1631.69 1125.64 C 1607.2 1124.26 1581.44 1121.56 1557.01 1124.18 C 1557.35 1114.14 1558.15 1096.29 1556.22 1086.77 C 1563.3 1087 1569.36 1086.97 1576.44 1086.77 z"/>
<path transform="translate(0,0)" fill="rgb(254,254,254)" d="M 766.848 993.958 C 812.25 952.279 888.259 933.193 941.872 969.778 C 955.876 979.334 964.533 993.186 972.259 1007.9 C 975.057 1007.44 974.806 1007.18 977.157 1009.12 C 1018.86 1043.46 1015.26 1093.49 1015.25 1141.56 L 1015.2 1248.85 C 1015.19 1266.5 1014.43 1293 1015.79 1310 C 979.544 1309.63 943.297 1309.55 907.051 1309.76 C 908.253 1298.24 908.12 1283.58 907.681 1271.92 L 873.149 1271.98 C 875.013 1229.58 872.894 1185.68 873.614 1143.15 C 874.004 1120.14 873.636 1093.66 870.559 1070.98 C 844.212 1065.92 821.105 1075.27 799.098 1088.5 C 799.044 1161.8 798.195 1236.86 799.283 1310.01 C 765.979 1309.55 724.014 1308.67 690.864 1310.09 C 691.14 1302.66 692.208 1278.8 691.082 1271.94 L 657.164 1271.96 L 657.191 960.274 L 766.883 960.207 L 766.848 993.958 z"/>
<path transform="translate(0,0)" fill="rgb(0,0,0)" d="M 766.811 1049.42 C 778.744 1044.23 789.252 1036.09 802.831 1034.44 C 839.524 1029.98 863.467 1030.15 870.559 1070.98 C 844.212 1065.92 821.105 1075.27 799.098 1088.5 C 799.044 1161.8 798.195 1236.86 799.283 1310.01 C 765.979 1309.55 724.014 1308.67 690.864 1310.09 C 691.14 1302.66 692.208 1278.8 691.082 1271.94 L 766.878 1271.86 L 766.811 1049.42 z"/>
<path transform="translate(0,0)" fill="rgb(0,0,0)" d="M 972.259 1007.9 C 975.057 1007.44 974.806 1007.18 977.157 1009.12 C 1018.86 1043.46 1015.26 1093.49 1015.25 1141.56 L 1015.2 1248.85 C 1015.19 1266.5 1014.43 1293 1015.79 1310 C 979.544 1309.63 943.297 1309.55 907.051 1309.76 C 908.253 1298.24 908.12 1283.58 907.681 1271.92 L 982.556 1271.84 C 981.532 1227.36 983.403 1181.01 982.588 1136.33 C 981.716 1088.55 987.268 1053.88 972.259 1007.9 z"/>
<path transform="translate(0,0)" fill="rgb(254,254,254)" d="M 108.26 858.298 L 224.998 858.218 L 225.03 1075.96 C 225.026 1113.48 224.194 1154.92 225.295 1192.16 L 226.106 1193.57 C 232.533 1194.47 250.283 1193.96 257.676 1193.9 L 417.771 1193.99 C 417.567 1206.66 417.598 1219.34 417.863 1232.01 C 428.7 1232.59 439.404 1232.42 450.251 1232.35 C 450.156 1254.17 449.108 1288.6 451.001 1309.87 C 395.161 1309.39 339.318 1309.29 283.476 1309.56 C 236.878 1309.58 188.89 1308.92 142.4 1309.87 C 142.572 1298.39 143.264 1283.1 142.85 1271.92 L 108.267 1271.98 C 109.035 1255.5 108.495 1234.2 108.5 1217.49 L 108.514 1115.32 C 108.518 1030.23 109.448 943.193 108.26 858.298 z"/>
<path transform="translate(0,0)" fill="rgb(0,0,0)" d="M 417.863 1232.01 C 428.7 1232.59 439.404 1232.42 450.251 1232.35 C 450.156 1254.17 449.108 1288.6 451.001 1309.87 C 395.161 1309.39 339.318 1309.29 283.476 1309.56 C 236.878 1309.58 188.89 1308.92 142.4 1309.87 C 142.572 1298.39 143.264 1283.1 142.85 1271.92 L 417.782 1271.86 C 417.317 1259.46 417.784 1244.59 417.863 1232.01 z"/>
<path transform="translate(0,0)" fill="rgb(254,254,254)" d="M 465.864 960.057 L 575.134 960.008 L 575.093 1166.17 C 575.091 1196.57 573.725 1242.24 575.427 1271.79 L 499.086 1271.92 L 465.75 1271.91 C 466.708 1238.55 465.837 1200.59 465.842 1166.75 L 465.864 960.057 z"/>
<path transform="translate(0,0)" fill="rgb(0,0,0)" d="M 575.621 998.035 C 584.003 998.915 599.223 998.722 607.679 997.946 C 607.397 1100.9 606.434 1207.3 607.982 1310.05 C 573.157 1309.9 533.815 1309 499.363 1310.1 C 499.363 1298.46 499.783 1283.27 499.086 1271.92 L 575.427 1271.79 C 577.631 1193.66 574.514 1114.33 575.756 1036.08 C 575.954 1023.58 575.891 1010.53 575.621 998.035 z"/>
<path transform="translate(0,0)" fill="rgb(0,0,0)" d="M 225.634 896.884 C 234.181 897.517 248.845 897.843 257.525 897.336 C 256.607 918.102 257.255 943.45 257.288 964.589 L 257.398 1085.42 L 257.292 1156.71 C 257.274 1164.98 256.751 1186.63 257.676 1193.9 C 250.283 1193.96 232.533 1194.47 226.106 1193.57 L 225.295 1192.16 C 226.911 1161.5 225.649 1120.81 225.636 1089.2 L 225.634 896.884 z"/>
<path transform="translate(0,0)" fill="rgb(0,0,0)" d="M 1521.17 1545.13 C 1550.81 1542.11 1564.06 1561.3 1567.23 1588.04 C 1572.01 1628.5 1533.66 1664.09 1498.17 1632.91 C 1498.64 1643.06 1498.31 1655.7 1498.3 1666.04 C 1498.25 1671.32 1498.44 1675.89 1498.71 1681.17 L 1469.97 1681.16 C 1469.99 1640.02 1471.48 1586.71 1469.54 1546.34 C 1477.85 1546.71 1485.93 1546.99 1494.23 1546.33 C 1494.56 1550.66 1494.64 1554.99 1494.77 1559.34 C 1504.85 1551.43 1508.89 1548.4 1521.17 1545.13 z"/>
<path transform="translate(0,0)" fill="rgb(254,254,254)" d="M 1515.44 1566.01 C 1517.44 1566.12 1519.42 1566.47 1521.35 1567.04 C 1537.42 1571.69 1541.69 1592.37 1536.52 1606.55 C 1533.26 1615.48 1528.88 1618.43 1520.69 1622.06 C 1498.14 1623.35 1494.46 1599.33 1499.62 1582.31 C 1502.53 1572.7 1507.01 1570.08 1515.44 1566.01 z"/>
<path transform="translate(0,0)" fill="rgb(0,0,0)" d="M 1350.57 1545.17 C 1365.96 1543.39 1374.02 1548.18 1382.19 1559.77 C 1382.85 1560.71 1388.82 1555.01 1389.83 1553.89 C 1399.12 1542.57 1423.17 1541.4 1433.21 1551.93 C 1450.64 1570.21 1445.22 1617.57 1445.3 1642.14 L 1417 1642.12 C 1417.16 1630.25 1420.34 1579.23 1411.67 1573.14 C 1379.22 1550.33 1386.91 1617.17 1387.05 1633.25 L 1387.29 1642.05 L 1358.27 1642.07 C 1358.15 1622.55 1367.87 1544.98 1330.87 1575.45 C 1327.72 1589.89 1329.01 1625.97 1329.12 1642.13 L 1300.93 1642.09 C 1301.01 1613.29 1302.16 1574 1299.86 1546.21 C 1308.21 1546.75 1316.57 1546.85 1324.93 1546.49 L 1325.35 1560.18 C 1334.37 1550.44 1337.36 1547.83 1350.57 1545.17 z"/>
<path transform="translate(0,0)" fill="rgb(0,0,0)" d="M 197.006 1510.12 C 206.11 1510.53 217.102 1510.73 226.125 1510.4 C 225.93 1525.47 227.66 1637.99 224.875 1642.06 L 197.098 1642.11 L 197.15 1587.17 C 181.812 1587.7 162.861 1587.22 147.263 1587.2 C 147.079 1602.36 146.651 1627.47 147.953 1642.02 C 138.005 1642.05 128.058 1642.14 118.112 1642.3 L 118.045 1510.16 C 126.62 1510.69 139.225 1510.38 148.108 1510.44 C 146.636 1523.68 147.256 1547.19 147.24 1561.16 L 197.071 1561.2 C 197.232 1544.18 197.21 1527.15 197.006 1510.12 z"/>
<path transform="translate(0,0)" fill="rgb(0,0,0)" d="M 1223.44 1544.63 C 1250.98 1540 1277.04 1558.66 1281.52 1586.23 C 1286 1613.8 1267.2 1639.76 1239.61 1644.09 C 1212.22 1648.4 1186.51 1629.77 1182.06 1602.41 C 1177.61 1575.04 1196.1 1549.23 1223.44 1544.63 z"/>
<path transform="translate(0,0)" fill="rgb(254,254,254)" d="M 1229.28 1565.08 C 1257.93 1565.63 1258.2 1615.77 1235.43 1623.09 C 1209.27 1623.79 1208.98 1594.11 1215.88 1575.71 C 1217.97 1570.14 1223.75 1566.79 1229.28 1565.08 z"/>
<path transform="translate(0,0)" fill="rgb(0,0,0)" d="M 253.989 1510.23 C 258.176 1510.52 263.155 1510.5 267.392 1510.42 C 289.454 1509.95 312.259 1511.33 334.248 1510.25 C 334.109 1518.33 333.784 1525.96 334.731 1534.02 L 283.033 1534.1 L 283.084 1562.2 C 299.354 1562.47 315.627 1562.47 331.897 1562.2 C 331.51 1569.69 331.854 1578.47 331.967 1586.06 C 319.519 1586.52 294.851 1585.19 284.16 1586.7 C 282.49 1589.96 282.989 1594.02 283.02 1597.86 L 283.082 1618.02 L 337.703 1618.1 C 337.389 1626.03 337.684 1634.1 337.86 1642.05 L 253.946 1642.11 L 253.989 1510.23 z"/>
<path transform="translate(0,0)" fill="rgb(0,0,0)" d="M 433.537 1509.15 C 451.852 1507.72 461.205 1509.19 478.159 1514.89 C 474.453 1523.86 473.157 1528.95 472.584 1538.64 C 464.5 1535.14 426.101 1521.77 423.869 1546.51 C 424.867 1551.68 433.861 1557.72 437.823 1559.45 C 456.055 1567.42 478.087 1573.71 482.505 1596.15 C 486.635 1617.12 472.478 1635.27 452.671 1640.84 C 447.094 1642.41 442.534 1643.15 436.721 1643.97 C 416.985 1644.49 410.986 1643.12 392.647 1636.88 C 394.625 1630.88 397.611 1618.3 398.498 1612.24 C 412.655 1618.23 428.05 1621.72 443.392 1618.57 C 450.376 1617.32 454.429 1608.3 452.359 1601.94 C 450.337 1596 444.049 1592.21 438.602 1589.84 C 422.275 1582.77 401.282 1575.92 395.643 1556.91 C 393.009 1548.03 395.298 1536.42 400.018 1528.57 C 407.245 1516.54 420.72 1511.92 433.537 1509.15 z"/>
<path transform="translate(0,0)" fill="rgb(0,0,0)" d="M 1613.63 1545.28 C 1682.53 1534.87 1662.47 1600.35 1666.98 1640.79 L 1667.13 1642.14 C 1658.83 1641.91 1650.94 1642.91 1642.62 1641.93 C 1639.18 1638.3 1642.96 1637.41 1640.17 1633.82 C 1633.12 1635.21 1629.13 1640.89 1622.42 1643.33 C 1613.35 1646.64 1601.91 1643.71 1593.48 1639.64 C 1587.23 1634.67 1581.94 1627.34 1581.29 1619.27 C 1578.34 1582.83 1614.53 1580.78 1639.45 1578.4 C 1636.06 1571.97 1634.24 1567.9 1626.61 1565.65 C 1616.09 1562.55 1601.76 1566.66 1592.47 1571.85 C 1590.87 1565.03 1589.48 1559.47 1587.4 1552.8 C 1597.02 1548.75 1603.38 1546.97 1613.63 1545.28 z"/>
<path transform="translate(0,0)" fill="rgb(254,254,254)" d="M 1636.28 1596.65 L 1637.4 1597.01 C 1638.48 1599.85 1638.46 1607.64 1637.84 1610.71 C 1635.14 1624.1 1623.81 1623.84 1613.74 1622.39 C 1609.18 1617.88 1606.99 1608.81 1612.47 1603.98 C 1619.9 1597.44 1626.9 1596.77 1636.28 1596.65 z"/>
<path transform="translate(0,0)" fill="rgb(0,0,0)" d="M 966.241 1545.25 C 1006.4 1540.6 1016.98 1569.6 1015.6 1603.91 L 951.561 1604.08 C 951.932 1604.8 952.616 1605.98 952.925 1606.7 C 961.936 1627.76 989.136 1623.61 1006.51 1618.43 C 1007.72 1625.27 1009.2 1632.06 1010.94 1638.78 C 1009.28 1639.19 1007.62 1639.58 1005.96 1639.95 C 986.388 1644.38 962.966 1647.49 945.023 1635.92 C 935.236 1629.64 928.469 1619.61 926.315 1608.19 C 920.429 1578.23 934.929 1550.56 966.241 1545.25 z"/>
<path transform="translate(0,0)" fill="rgb(254,254,254)" d="M 971.013 1564.27 C 985.32 1564.83 986.748 1572.44 990.025 1584.59 L 971.174 1584.84 C 964.709 1584.82 958.113 1584.65 951.636 1584.56 C 955.595 1572.58 957.328 1566.13 971.013 1564.27 z"/>
<path transform="translate(0,0)" fill="rgb(0,0,0)" d="M 539.988 1545.29 C 579.091 1541.15 591.816 1569.28 589.167 1603.84 C 568.466 1604.3 546.509 1603.99 525.707 1604.04 C 536.102 1627.71 559.651 1624.79 580.636 1618.45 C 581.797 1625.81 582.784 1631 584.621 1638.21 C 564.694 1644.65 537.013 1648.12 518.513 1635.77 C 495.848 1620.62 493.228 1584.73 508.701 1563.58 C 516.971 1552.27 526.441 1547.46 539.988 1545.29 z"/>
<path transform="translate(0,0)" fill="rgb(254,254,254)" d="M 543.931 1564.17 C 558.346 1563.66 561.134 1573.18 562.961 1584.89 L 548.25 1584.84 L 525.526 1584.6 C 528.929 1573.93 531.875 1566.29 543.931 1564.17 z"/>
<path transform="translate(0,0)" fill="rgb(0,0,0)" d="M 1129.67 1509.26 C 1137.23 1508.19 1166.54 1508.54 1171.68 1514.18 C 1171.9 1517.51 1169.09 1531.54 1168.45 1536.5 C 1133.92 1525.69 1098.79 1535.26 1099.88 1577.69 C 1100.69 1609.27 1122.6 1623.2 1152.3 1618.3 C 1156.75 1617.57 1161.8 1617.04 1166.39 1616.78 C 1168.69 1618.83 1167.96 1619.23 1168.44 1623.36 C 1169.27 1628.63 1170.38 1634.09 1171.38 1639.35 C 1168.74 1640.18 1166.06 1640.88 1163.36 1641.46 C 1124.44 1649.85 1078.65 1638.83 1070.92 1594.59 C 1062.88 1548.5 1084.31 1517.27 1129.67 1509.26 z"/>
<path transform="translate(0,0)" fill="rgb(0,0,0)" d="M 1742.53 1545.11 C 1793.88 1538.91 1779.3 1609.37 1781.86 1640.5 L 1781.99 1642.07 L 1752.16 1642.09 C 1753.1 1626.88 1753.06 1589.67 1750.19 1575.56 C 1739.83 1566.07 1733.01 1566.1 1722.92 1575.72 C 1718.07 1585.59 1719.81 1629.39 1720.73 1641.98 L 1690.94 1642.04 C 1690.97 1610.54 1691.42 1577.68 1690.05 1546.27 C 1697.73 1546.95 1708.1 1546.75 1716 1546.83 C 1715.96 1551.18 1715.5 1556.01 1715.19 1560.38 C 1725.75 1551.04 1728.76 1548.12 1742.53 1545.11 z"/>
<path transform="translate(0,0)" fill="rgb(0,0,0)" d="M 745.483 1546 C 754.503 1546.98 767.626 1546.95 776.613 1546.26 C 773.877 1552.08 772.177 1556.59 769.979 1562.65 C 761.435 1587.68 749.851 1617.37 740.333 1642.22 C 730.503 1642.03 720.671 1642.04 710.841 1642.24 C 701.855 1611.8 686.318 1577.48 676.376 1546.13 C 684.157 1547.18 699.904 1546.75 707.8 1546.35 C 715.504 1571.17 721.131 1593.05 727.11 1618.19 C 729.07 1601.81 740.698 1564.4 745.483 1546 z"/>
<path transform="translate(0,0)" fill="rgb(0,0,0)" d="M 884.645 1545.25 C 894.889 1544.01 905.376 1545.79 915.525 1547.23 C 915.14 1553.47 912.853 1563.61 911.604 1570.02 C 902.606 1567.06 897.506 1565.05 887.839 1567.66 C 881.197 1569.43 875.545 1573.79 872.15 1579.77 C 868.329 1586.63 867.836 1595.69 870.118 1603.13 C 872.114 1609.77 876.778 1615.29 882.999 1618.37 C 893.211 1623.46 902.241 1621.59 912.301 1618.42 C 913.43 1623.96 914.331 1629.81 915.274 1635.41 C 915.2 1639.32 915 1641.03 910.216 1642.19 C 858.593 1654.7 820.88 1614.72 847.308 1566.09 C 854.027 1553.72 869.938 1547.81 884.645 1545.25 z"/>
<path transform="translate(0,0)" fill="rgb(0,0,0)" d="M 663.799 1544.42 L 664.877 1544.41 C 667.496 1547.01 666.849 1566.39 667.036 1571.75 C 664.842 1571.75 662.648 1571.79 660.455 1571.87 C 648.597 1572.3 645.513 1574.91 638.01 1582.96 C 637.341 1602.24 637.665 1622.7 637.662 1642.07 L 608.341 1642.09 C 608.795 1638.16 608.712 1632.81 608.77 1628.75 C 608.828 1601.21 609.163 1573.73 607.765 1546.22 C 613.916 1546.95 626.918 1546.77 632.971 1546.39 C 633.024 1552.63 633.867 1560.16 634.408 1566.49 C 641.147 1550.08 646.413 1546 663.799 1544.42 z"/>
<path transform="translate(0,0)" fill="rgb(0,0,0)" d="M 790.228 1546.04 C 798.333 1547.32 811.439 1546.61 819.906 1546.3 C 819.578 1578.21 819.612 1610.12 820.006 1642.03 L 790.136 1642.08 C 790.209 1613.2 791.594 1574.17 790.228 1546.04 z"/>
<path transform="translate(0,0)" fill="rgb(0,0,0)" d="M 799.588 1505.27 C 804.696 1503.29 810.479 1504.24 814.683 1507.76 C 818.887 1511.27 820.848 1516.79 819.801 1522.17 C 818.754 1527.55 814.866 1531.93 809.65 1533.62 C 801.906 1536.11 793.58 1532 790.858 1524.33 C 788.136 1516.66 792.004 1508.22 799.588 1505.27 z"/>
</svg>